# xmcd
#
# Track frame offsets: 
#        150
#        16073
#        48973
#        72345
#        95478
#        117025
#        143380
#        165918
#        192848
#        214405
#        243307
#
# Disc length: 3725 seconds
#
# Revision: 1
# Processed by: cddbd v1.5.2PL0 Copyright (c) Steve Scherf et al.
# Submitted via: ExactAudioCopy v1.0b6
#
DISCID=880e8b0b
DTITLE=Various Artist - Bio Molecular Rhythms Volume Three
DYEAR=2001
DGENRE=Techno
TTITLE0=No Artist - 100 Loops On .WAV Format (Data Track)
TTITLE1=Oliver Ho - In The Centre Of Paradise
TTITLE2=Rob Alcock - Kundal
TTITLE3=Max Duley - Slap
TTITLE4=Rue East - Summer Of Blood (Hardgroove Remix)
TTITLE5=Marco Carola and Adam Beyer - FFM
TTITLE6=Claude Young - Ghost
TTITLE7=Inigo Kennedy - Until 6 Arrives
TTITLE8=Jeff Mills - Robot Replica
TTITLE9=Marco Lenzi - Intrinsic Radiance
TTITLE10=DJ Dry aka 3ST - Interstate 94
EXTD=!!!!! tekno detroit, girls and cocaine !!!!!
EXTT0=
EXTT1=
EXTT2=
EXTT3=
EXTT4=
EXTT5=
EXTT6=
EXTT7=
EXTT8=
EXTT9=
EXTT10=
PLAYORDER=
